<mxfile host="app.diagrams.net" modified="2024-04-27T22:47:03.787Z" agent="Mozilla/5.0 (Windows NT 10.0; Win64; x64) AppleWebKit/537.36 (KHTML, like Gecko) Chrome/124.0.0.0 Safari/537.36" etag="xM-JaQKhg9ZQmeRV7DrG" version="24.2.5" type="device">
  <diagram name="Страница — 1" id="CNX8QQDKJaFD8e-PVogH">
    <mxGraphModel dx="1427" dy="318" grid="1" gridSize="10" guides="1" tooltips="1" connect="1" arrows="1" fold="1" page="1" pageScale="1" pageWidth="827" pageHeight="1169" math="0" shadow="0">
      <root>
        <mxCell id="0" />
        <mxCell id="1" parent="0" />
        <mxCell id="XZJwOO6RYDCI8YUKahtn-27" value="" style="rounded=0;whiteSpace=wrap;html=1;" vertex="1" parent="1">
          <mxGeometry x="-170" y="30" width="1170" height="650" as="geometry" />
        </mxCell>
        <mxCell id="XZJwOO6RYDCI8YUKahtn-1" value="Регистрация и авторизация" style="rounded=0;whiteSpace=wrap;html=1;" vertex="1" parent="1">
          <mxGeometry x="120" y="80" width="90" height="90" as="geometry" />
        </mxCell>
        <mxCell id="XZJwOO6RYDCI8YUKahtn-2" value="Создание заказа" style="rounded=0;whiteSpace=wrap;html=1;" vertex="1" parent="1">
          <mxGeometry x="280" y="170" width="90" height="90" as="geometry" />
        </mxCell>
        <mxCell id="XZJwOO6RYDCI8YUKahtn-4" value="Выбор фрилансера" style="rounded=0;whiteSpace=wrap;html=1;" vertex="1" parent="1">
          <mxGeometry x="440" y="260" width="90" height="90" as="geometry" />
        </mxCell>
        <mxCell id="XZJwOO6RYDCI8YUKahtn-5" value="Оставление отзыва" style="rounded=0;whiteSpace=wrap;html=1;" vertex="1" parent="1">
          <mxGeometry x="760" y="440" width="90" height="90" as="geometry" />
        </mxCell>
        <mxCell id="XZJwOO6RYDCI8YUKahtn-6" value="" style="endArrow=classic;html=1;rounded=0;entryX=-0.006;entryY=0.334;entryDx=0;entryDy=0;entryPerimeter=0;" edge="1" parent="1" target="XZJwOO6RYDCI8YUKahtn-1">
          <mxGeometry width="50" height="50" relative="1" as="geometry">
            <mxPoint x="-80" y="110" as="sourcePoint" />
            <mxPoint x="60" y="120" as="targetPoint" />
          </mxGeometry>
        </mxCell>
        <mxCell id="XZJwOO6RYDCI8YUKahtn-8" value="Данные о пользователе" style="text;html=1;align=center;verticalAlign=middle;whiteSpace=wrap;rounded=0;" vertex="1" parent="1">
          <mxGeometry x="-50" y="90" width="160" height="20" as="geometry" />
        </mxCell>
        <mxCell id="XZJwOO6RYDCI8YUKahtn-10" value="Согласование требований с исполнителем" style="rounded=0;whiteSpace=wrap;html=1;" vertex="1" parent="1">
          <mxGeometry x="600" y="350" width="90" height="90" as="geometry" />
        </mxCell>
        <mxCell id="XZJwOO6RYDCI8YUKahtn-12" value="" style="endArrow=classic;html=1;rounded=0;entryX=0;entryY=0.75;entryDx=0;entryDy=0;" edge="1" parent="1" target="XZJwOO6RYDCI8YUKahtn-1">
          <mxGeometry width="50" height="50" relative="1" as="geometry">
            <mxPoint x="-80" y="148" as="sourcePoint" />
            <mxPoint x="130" y="130" as="targetPoint" />
          </mxGeometry>
        </mxCell>
        <mxCell id="XZJwOO6RYDCI8YUKahtn-16" value="" style="endArrow=classic;html=1;rounded=1;curved=0;exitX=1;exitY=0.5;exitDx=0;exitDy=0;entryX=0;entryY=0.5;entryDx=0;entryDy=0;" edge="1" parent="1" source="XZJwOO6RYDCI8YUKahtn-1" target="XZJwOO6RYDCI8YUKahtn-2">
          <mxGeometry width="50" height="50" relative="1" as="geometry">
            <mxPoint x="160" y="340" as="sourcePoint" />
            <mxPoint x="210" y="290" as="targetPoint" />
            <Array as="points">
              <mxPoint x="260" y="125" />
              <mxPoint x="260" y="215" />
            </Array>
          </mxGeometry>
        </mxCell>
        <mxCell id="XZJwOO6RYDCI8YUKahtn-17" value="" style="endArrow=classic;html=1;rounded=1;curved=0;exitX=1;exitY=0.5;exitDx=0;exitDy=0;entryX=0;entryY=0.5;entryDx=0;entryDy=0;" edge="1" parent="1">
          <mxGeometry width="50" height="50" relative="1" as="geometry">
            <mxPoint x="370" y="220" as="sourcePoint" />
            <mxPoint x="440" y="310" as="targetPoint" />
            <Array as="points">
              <mxPoint x="420" y="220" />
              <mxPoint x="420" y="310" />
            </Array>
          </mxGeometry>
        </mxCell>
        <mxCell id="XZJwOO6RYDCI8YUKahtn-18" value="" style="endArrow=classic;html=1;rounded=1;curved=0;exitX=1;exitY=0.5;exitDx=0;exitDy=0;entryX=0;entryY=0.5;entryDx=0;entryDy=0;" edge="1" parent="1">
          <mxGeometry width="50" height="50" relative="1" as="geometry">
            <mxPoint x="530" y="310" as="sourcePoint" />
            <mxPoint x="600" y="400" as="targetPoint" />
            <Array as="points">
              <mxPoint x="580" y="310" />
              <mxPoint x="580" y="400" />
            </Array>
          </mxGeometry>
        </mxCell>
        <mxCell id="XZJwOO6RYDCI8YUKahtn-19" value="" style="endArrow=classic;html=1;rounded=1;curved=0;exitX=1;exitY=0.5;exitDx=0;exitDy=0;entryX=0;entryY=0.5;entryDx=0;entryDy=0;" edge="1" parent="1">
          <mxGeometry width="50" height="50" relative="1" as="geometry">
            <mxPoint x="690" y="400" as="sourcePoint" />
            <mxPoint x="760" y="490" as="targetPoint" />
            <Array as="points">
              <mxPoint x="740" y="400" />
              <mxPoint x="740" y="490" />
            </Array>
          </mxGeometry>
        </mxCell>
        <mxCell id="XZJwOO6RYDCI8YUKahtn-20" value="" style="endArrow=classic;html=1;rounded=1;curved=0;entryX=0.437;entryY=1.033;entryDx=0;entryDy=0;entryPerimeter=0;" edge="1" parent="1" target="XZJwOO6RYDCI8YUKahtn-1">
          <mxGeometry width="50" height="50" relative="1" as="geometry">
            <mxPoint x="160" y="600" as="sourcePoint" />
            <mxPoint x="230" y="690" as="targetPoint" />
            <Array as="points" />
          </mxGeometry>
        </mxCell>
        <mxCell id="XZJwOO6RYDCI8YUKahtn-22" value="" style="endArrow=classic;html=1;rounded=1;curved=0;entryX=0.5;entryY=1;entryDx=0;entryDy=0;" edge="1" parent="1" target="XZJwOO6RYDCI8YUKahtn-5">
          <mxGeometry width="50" height="50" relative="1" as="geometry">
            <mxPoint x="160" y="600" as="sourcePoint" />
            <mxPoint x="169" y="183" as="targetPoint" />
            <Array as="points">
              <mxPoint x="160" y="560" />
              <mxPoint x="805" y="560" />
            </Array>
          </mxGeometry>
        </mxCell>
        <mxCell id="XZJwOO6RYDCI8YUKahtn-23" value="" style="endArrow=classic;html=1;rounded=1;curved=0;entryX=0.5;entryY=1;entryDx=0;entryDy=0;" edge="1" parent="1" target="XZJwOO6RYDCI8YUKahtn-10">
          <mxGeometry width="50" height="50" relative="1" as="geometry">
            <mxPoint x="160" y="600" as="sourcePoint" />
            <mxPoint x="805" y="530" as="targetPoint" />
            <Array as="points">
              <mxPoint x="160" y="470" />
              <mxPoint x="640" y="470" />
              <mxPoint x="645" y="470" />
            </Array>
          </mxGeometry>
        </mxCell>
        <mxCell id="XZJwOO6RYDCI8YUKahtn-24" value="" style="endArrow=classic;html=1;rounded=1;curved=0;entryX=0.5;entryY=1;entryDx=0;entryDy=0;" edge="1" parent="1" target="XZJwOO6RYDCI8YUKahtn-4">
          <mxGeometry width="50" height="50" relative="1" as="geometry">
            <mxPoint x="160" y="600" as="sourcePoint" />
            <mxPoint x="645" y="440" as="targetPoint" />
            <Array as="points">
              <mxPoint x="160" y="370" />
              <mxPoint x="485" y="370" />
            </Array>
          </mxGeometry>
        </mxCell>
        <mxCell id="XZJwOO6RYDCI8YUKahtn-25" value="" style="endArrow=classic;html=1;rounded=1;curved=0;entryX=0.5;entryY=1;entryDx=0;entryDy=0;" edge="1" parent="1" target="XZJwOO6RYDCI8YUKahtn-2">
          <mxGeometry width="50" height="50" relative="1" as="geometry">
            <mxPoint x="160" y="600" as="sourcePoint" />
            <mxPoint x="485" y="350" as="targetPoint" />
            <Array as="points">
              <mxPoint x="160" y="290" />
              <mxPoint x="325" y="290" />
            </Array>
          </mxGeometry>
        </mxCell>
        <mxCell id="XZJwOO6RYDCI8YUKahtn-26" value="Проверка корректности действий" style="text;html=1;align=center;verticalAlign=middle;whiteSpace=wrap;rounded=0;" vertex="1" parent="1">
          <mxGeometry x="165" y="570" width="235" height="30" as="geometry" />
        </mxCell>
        <mxCell id="XZJwOO6RYDCI8YUKahtn-28" value="Данные о заказе" style="text;html=1;align=center;verticalAlign=middle;whiteSpace=wrap;rounded=0;" vertex="1" parent="1">
          <mxGeometry x="220" y="90" width="110" height="30" as="geometry" />
        </mxCell>
        <mxCell id="XZJwOO6RYDCI8YUKahtn-29" value="Подходящая кандидатура для заказа" style="text;html=1;align=center;verticalAlign=middle;whiteSpace=wrap;rounded=0;" vertex="1" parent="1">
          <mxGeometry x="370" y="180" width="160" height="30" as="geometry" />
        </mxCell>
        <mxCell id="XZJwOO6RYDCI8YUKahtn-30" value="Специфические требования для конкретного заказа" style="text;html=1;align=center;verticalAlign=middle;whiteSpace=wrap;rounded=0;" vertex="1" parent="1">
          <mxGeometry x="540" y="270" width="160" height="30" as="geometry" />
        </mxCell>
        <mxCell id="XZJwOO6RYDCI8YUKahtn-31" value="Оценка работы" style="text;html=1;align=center;verticalAlign=middle;whiteSpace=wrap;rounded=0;" vertex="1" parent="1">
          <mxGeometry x="660" y="370" width="160" height="30" as="geometry" />
        </mxCell>
        <mxCell id="XZJwOO6RYDCI8YUKahtn-33" value="" style="endArrow=classic;html=1;rounded=1;curved=0;entryX=0.5;entryY=0;entryDx=0;entryDy=0;" edge="1" parent="1" target="XZJwOO6RYDCI8YUKahtn-10">
          <mxGeometry width="50" height="50" relative="1" as="geometry">
            <mxPoint x="770" y="30" as="sourcePoint" />
            <mxPoint x="810" y="270" as="targetPoint" />
            <Array as="points">
              <mxPoint x="770" y="180" />
              <mxPoint x="770" y="330" />
              <mxPoint x="645" y="330" />
            </Array>
          </mxGeometry>
        </mxCell>
        <mxCell id="XZJwOO6RYDCI8YUKahtn-34" value="Выбор способа коммуникации" style="text;html=1;align=center;verticalAlign=middle;whiteSpace=wrap;rounded=0;" vertex="1" parent="1">
          <mxGeometry x="760" y="160" width="115" height="30" as="geometry" />
        </mxCell>
        <mxCell id="XZJwOO6RYDCI8YUKahtn-35" value="" style="endArrow=classic;html=1;rounded=0;exitX=1;exitY=0.5;exitDx=0;exitDy=0;" edge="1" parent="1" source="XZJwOO6RYDCI8YUKahtn-5">
          <mxGeometry width="50" height="50" relative="1" as="geometry">
            <mxPoint x="890" y="580" as="sourcePoint" />
            <mxPoint x="970" y="485" as="targetPoint" />
          </mxGeometry>
        </mxCell>
        <mxCell id="XZJwOO6RYDCI8YUKahtn-36" value="Новый заказ" style="text;html=1;align=center;verticalAlign=middle;whiteSpace=wrap;rounded=0;" vertex="1" parent="1">
          <mxGeometry x="875" y="450" width="60" height="30" as="geometry" />
        </mxCell>
        <mxCell id="XZJwOO6RYDCI8YUKahtn-37" value="" style="rounded=0;whiteSpace=wrap;html=1;" vertex="1" parent="1">
          <mxGeometry x="1080" y="30" width="1160" height="650" as="geometry" />
        </mxCell>
        <mxCell id="XZJwOO6RYDCI8YUKahtn-38" value="Регистрация и авторизация" style="rounded=0;whiteSpace=wrap;html=1;" vertex="1" parent="1">
          <mxGeometry x="1370" y="80" width="90" height="90" as="geometry" />
        </mxCell>
        <mxCell id="XZJwOO6RYDCI8YUKahtn-39" value="Поиск заказа" style="rounded=0;whiteSpace=wrap;html=1;" vertex="1" parent="1">
          <mxGeometry x="1530" y="170" width="90" height="90" as="geometry" />
        </mxCell>
        <mxCell id="XZJwOO6RYDCI8YUKahtn-40" value="Отклик на задание" style="rounded=0;whiteSpace=wrap;html=1;" vertex="1" parent="1">
          <mxGeometry x="1690" y="260" width="90" height="90" as="geometry" />
        </mxCell>
        <mxCell id="XZJwOO6RYDCI8YUKahtn-41" value="Оставление отзыва" style="rounded=0;whiteSpace=wrap;html=1;" vertex="1" parent="1">
          <mxGeometry x="2010" y="440" width="90" height="90" as="geometry" />
        </mxCell>
        <mxCell id="XZJwOO6RYDCI8YUKahtn-42" value="" style="endArrow=classic;html=1;rounded=0;entryX=-0.006;entryY=0.334;entryDx=0;entryDy=0;entryPerimeter=0;" edge="1" parent="1" target="XZJwOO6RYDCI8YUKahtn-38">
          <mxGeometry width="50" height="50" relative="1" as="geometry">
            <mxPoint x="1170" y="110" as="sourcePoint" />
            <mxPoint x="1310" y="120" as="targetPoint" />
          </mxGeometry>
        </mxCell>
        <mxCell id="XZJwOO6RYDCI8YUKahtn-43" value="Данные о пользователе" style="text;html=1;align=center;verticalAlign=middle;whiteSpace=wrap;rounded=0;" vertex="1" parent="1">
          <mxGeometry x="1200" y="90" width="160" height="20" as="geometry" />
        </mxCell>
        <mxCell id="XZJwOO6RYDCI8YUKahtn-44" value="Согласование требований с заказчиком" style="rounded=0;whiteSpace=wrap;html=1;" vertex="1" parent="1">
          <mxGeometry x="1850" y="350" width="90" height="90" as="geometry" />
        </mxCell>
        <mxCell id="XZJwOO6RYDCI8YUKahtn-45" value="" style="endArrow=classic;html=1;rounded=0;entryX=0;entryY=0.75;entryDx=0;entryDy=0;" edge="1" parent="1" target="XZJwOO6RYDCI8YUKahtn-38">
          <mxGeometry width="50" height="50" relative="1" as="geometry">
            <mxPoint x="1170" y="148" as="sourcePoint" />
            <mxPoint x="1380" y="130" as="targetPoint" />
          </mxGeometry>
        </mxCell>
        <mxCell id="XZJwOO6RYDCI8YUKahtn-46" value="" style="endArrow=classic;html=1;rounded=1;curved=0;exitX=1;exitY=0.5;exitDx=0;exitDy=0;entryX=0;entryY=0.5;entryDx=0;entryDy=0;" edge="1" parent="1" source="XZJwOO6RYDCI8YUKahtn-38" target="XZJwOO6RYDCI8YUKahtn-39">
          <mxGeometry width="50" height="50" relative="1" as="geometry">
            <mxPoint x="1410" y="340" as="sourcePoint" />
            <mxPoint x="1460" y="290" as="targetPoint" />
            <Array as="points">
              <mxPoint x="1510" y="125" />
              <mxPoint x="1510" y="215" />
            </Array>
          </mxGeometry>
        </mxCell>
        <mxCell id="XZJwOO6RYDCI8YUKahtn-47" value="" style="endArrow=classic;html=1;rounded=1;curved=0;exitX=1;exitY=0.5;exitDx=0;exitDy=0;entryX=0;entryY=0.5;entryDx=0;entryDy=0;" edge="1" parent="1">
          <mxGeometry width="50" height="50" relative="1" as="geometry">
            <mxPoint x="1620" y="220" as="sourcePoint" />
            <mxPoint x="1690" y="310" as="targetPoint" />
            <Array as="points">
              <mxPoint x="1670" y="220" />
              <mxPoint x="1670" y="310" />
            </Array>
          </mxGeometry>
        </mxCell>
        <mxCell id="XZJwOO6RYDCI8YUKahtn-48" value="" style="endArrow=classic;html=1;rounded=1;curved=0;exitX=1;exitY=0.5;exitDx=0;exitDy=0;entryX=0;entryY=0.5;entryDx=0;entryDy=0;" edge="1" parent="1">
          <mxGeometry width="50" height="50" relative="1" as="geometry">
            <mxPoint x="1780" y="310" as="sourcePoint" />
            <mxPoint x="1850" y="400" as="targetPoint" />
            <Array as="points">
              <mxPoint x="1830" y="310" />
              <mxPoint x="1830" y="400" />
            </Array>
          </mxGeometry>
        </mxCell>
        <mxCell id="XZJwOO6RYDCI8YUKahtn-49" value="" style="endArrow=classic;html=1;rounded=1;curved=0;exitX=1;exitY=0.5;exitDx=0;exitDy=0;entryX=0;entryY=0.5;entryDx=0;entryDy=0;" edge="1" parent="1">
          <mxGeometry width="50" height="50" relative="1" as="geometry">
            <mxPoint x="1940" y="400" as="sourcePoint" />
            <mxPoint x="2010" y="490" as="targetPoint" />
            <Array as="points">
              <mxPoint x="1990" y="400" />
              <mxPoint x="1990" y="490" />
            </Array>
          </mxGeometry>
        </mxCell>
        <mxCell id="XZJwOO6RYDCI8YUKahtn-50" value="" style="endArrow=classic;html=1;rounded=1;curved=0;entryX=0.437;entryY=1.033;entryDx=0;entryDy=0;entryPerimeter=0;" edge="1" parent="1" target="XZJwOO6RYDCI8YUKahtn-38">
          <mxGeometry width="50" height="50" relative="1" as="geometry">
            <mxPoint x="1410" y="600" as="sourcePoint" />
            <mxPoint x="1480" y="690" as="targetPoint" />
            <Array as="points" />
          </mxGeometry>
        </mxCell>
        <mxCell id="XZJwOO6RYDCI8YUKahtn-51" value="" style="endArrow=classic;html=1;rounded=1;curved=0;entryX=0.5;entryY=1;entryDx=0;entryDy=0;" edge="1" parent="1" target="XZJwOO6RYDCI8YUKahtn-41">
          <mxGeometry width="50" height="50" relative="1" as="geometry">
            <mxPoint x="1410" y="600" as="sourcePoint" />
            <mxPoint x="1419" y="183" as="targetPoint" />
            <Array as="points">
              <mxPoint x="1410" y="560" />
              <mxPoint x="2055" y="560" />
            </Array>
          </mxGeometry>
        </mxCell>
        <mxCell id="XZJwOO6RYDCI8YUKahtn-52" value="" style="endArrow=classic;html=1;rounded=1;curved=0;entryX=0.5;entryY=1;entryDx=0;entryDy=0;" edge="1" parent="1" target="XZJwOO6RYDCI8YUKahtn-44">
          <mxGeometry width="50" height="50" relative="1" as="geometry">
            <mxPoint x="1410" y="600" as="sourcePoint" />
            <mxPoint x="2055" y="530" as="targetPoint" />
            <Array as="points">
              <mxPoint x="1410" y="470" />
              <mxPoint x="1890" y="470" />
              <mxPoint x="1895" y="470" />
            </Array>
          </mxGeometry>
        </mxCell>
        <mxCell id="XZJwOO6RYDCI8YUKahtn-53" value="" style="endArrow=classic;html=1;rounded=1;curved=0;entryX=0.5;entryY=1;entryDx=0;entryDy=0;" edge="1" parent="1" target="XZJwOO6RYDCI8YUKahtn-40">
          <mxGeometry width="50" height="50" relative="1" as="geometry">
            <mxPoint x="1410" y="600" as="sourcePoint" />
            <mxPoint x="1895" y="440" as="targetPoint" />
            <Array as="points">
              <mxPoint x="1410" y="370" />
              <mxPoint x="1735" y="370" />
            </Array>
          </mxGeometry>
        </mxCell>
        <mxCell id="XZJwOO6RYDCI8YUKahtn-54" value="" style="endArrow=classic;html=1;rounded=1;curved=0;entryX=0.5;entryY=1;entryDx=0;entryDy=0;" edge="1" parent="1" target="XZJwOO6RYDCI8YUKahtn-39">
          <mxGeometry width="50" height="50" relative="1" as="geometry">
            <mxPoint x="1410" y="600" as="sourcePoint" />
            <mxPoint x="1735" y="350" as="targetPoint" />
            <Array as="points">
              <mxPoint x="1410" y="290" />
              <mxPoint x="1575" y="290" />
            </Array>
          </mxGeometry>
        </mxCell>
        <mxCell id="XZJwOO6RYDCI8YUKahtn-55" value="Проверка корректности действий" style="text;html=1;align=center;verticalAlign=middle;whiteSpace=wrap;rounded=0;" vertex="1" parent="1">
          <mxGeometry x="1415" y="570" width="235" height="30" as="geometry" />
        </mxCell>
        <mxCell id="XZJwOO6RYDCI8YUKahtn-56" value="Список заказов" style="text;html=1;align=center;verticalAlign=middle;whiteSpace=wrap;rounded=0;" vertex="1" parent="1">
          <mxGeometry x="1460" y="90" width="110" height="30" as="geometry" />
        </mxCell>
        <mxCell id="XZJwOO6RYDCI8YUKahtn-57" value="Данные о заказе" style="text;html=1;align=center;verticalAlign=middle;whiteSpace=wrap;rounded=0;" vertex="1" parent="1">
          <mxGeometry x="1600" y="180" width="160" height="30" as="geometry" />
        </mxCell>
        <mxCell id="XZJwOO6RYDCI8YUKahtn-58" value="Данные о навыках исполнителя" style="text;html=1;align=center;verticalAlign=middle;whiteSpace=wrap;rounded=0;" vertex="1" parent="1">
          <mxGeometry x="1760" y="270" width="160" height="30" as="geometry" />
        </mxCell>
        <mxCell id="XZJwOO6RYDCI8YUKahtn-59" value="Оценка заказчика" style="text;html=1;align=center;verticalAlign=middle;whiteSpace=wrap;rounded=0;" vertex="1" parent="1">
          <mxGeometry x="1920" y="370" width="160" height="30" as="geometry" />
        </mxCell>
        <mxCell id="XZJwOO6RYDCI8YUKahtn-60" value="" style="endArrow=classic;html=1;rounded=1;curved=0;entryX=0.5;entryY=0;entryDx=0;entryDy=0;" edge="1" parent="1" target="XZJwOO6RYDCI8YUKahtn-44">
          <mxGeometry width="50" height="50" relative="1" as="geometry">
            <mxPoint x="2020" y="30" as="sourcePoint" />
            <mxPoint x="2060" y="270" as="targetPoint" />
            <Array as="points">
              <mxPoint x="2020" y="180" />
              <mxPoint x="2020" y="330" />
              <mxPoint x="1895" y="330" />
            </Array>
          </mxGeometry>
        </mxCell>
        <mxCell id="XZJwOO6RYDCI8YUKahtn-61" value="Выбор способа коммуникации" style="text;html=1;align=center;verticalAlign=middle;whiteSpace=wrap;rounded=0;" vertex="1" parent="1">
          <mxGeometry x="2010" y="160" width="115" height="30" as="geometry" />
        </mxCell>
        <mxCell id="XZJwOO6RYDCI8YUKahtn-62" value="" style="endArrow=classic;html=1;rounded=0;exitX=1;exitY=0.5;exitDx=0;exitDy=0;" edge="1" parent="1" source="XZJwOO6RYDCI8YUKahtn-41">
          <mxGeometry width="50" height="50" relative="1" as="geometry">
            <mxPoint x="2140" y="580" as="sourcePoint" />
            <mxPoint x="2220" y="485" as="targetPoint" />
          </mxGeometry>
        </mxCell>
        <mxCell id="XZJwOO6RYDCI8YUKahtn-63" value="Новый заказ" style="text;html=1;align=center;verticalAlign=middle;whiteSpace=wrap;rounded=0;" vertex="1" parent="1">
          <mxGeometry x="2125" y="450" width="60" height="30" as="geometry" />
        </mxCell>
        <mxCell id="XZJwOO6RYDCI8YUKahtn-64" value="А0" style="text;html=1;align=center;verticalAlign=middle;whiteSpace=wrap;rounded=0;" vertex="1" parent="1">
          <mxGeometry x="160" y="140" width="60" height="30" as="geometry" />
        </mxCell>
        <mxCell id="XZJwOO6RYDCI8YUKahtn-65" value="А1" style="text;html=1;align=center;verticalAlign=middle;whiteSpace=wrap;rounded=0;" vertex="1" parent="1">
          <mxGeometry x="320" y="230" width="60" height="30" as="geometry" />
        </mxCell>
        <mxCell id="XZJwOO6RYDCI8YUKahtn-66" value="А2" style="text;html=1;align=center;verticalAlign=middle;whiteSpace=wrap;rounded=0;" vertex="1" parent="1">
          <mxGeometry x="480" y="320" width="60" height="30" as="geometry" />
        </mxCell>
        <mxCell id="XZJwOO6RYDCI8YUKahtn-67" value="А3" style="text;html=1;align=center;verticalAlign=middle;whiteSpace=wrap;rounded=0;" vertex="1" parent="1">
          <mxGeometry x="640" y="410" width="60" height="30" as="geometry" />
        </mxCell>
        <mxCell id="XZJwOO6RYDCI8YUKahtn-68" value="А4" style="text;html=1;align=center;verticalAlign=middle;whiteSpace=wrap;rounded=0;" vertex="1" parent="1">
          <mxGeometry x="800" y="500" width="60" height="30" as="geometry" />
        </mxCell>
        <mxCell id="XZJwOO6RYDCI8YUKahtn-70" value="B&lt;span style=&quot;color: rgba(0, 0, 0, 0); font-family: monospace; font-size: 0px; text-align: start; text-wrap: nowrap;&quot;&gt;%3CmxGraphModel%3E%3Croot%3E%3CmxCell%20id%3D%220%22%2F%3E%3CmxCell%20id%3D%221%22%20parent%3D%220%22%2F%3E%3CmxCell%20id%3D%222%22%20value%3D%22%D0%904%22%20style%3D%22text%3Bhtml%3D1%3Balign%3Dcenter%3BverticalAlign%3Dmiddle%3BwhiteSpace%3Dwrap%3Brounded%3D0%3B%22%20vertex%3D%221%22%20parent%3D%221%22%3E%3CmxGeometry%20x%3D%22800%22%20y%3D%22500%22%20width%3D%2260%22%20height%3D%2230%22%20as%3D%22geometry%22%2F%3E%3C%2FmxCell%3E%3C%2Froot%3E%3C%2FmxGraphModel%3E&lt;/span&gt;&lt;span style=&quot;color: rgba(0, 0, 0, 0); font-family: monospace; font-size: 0px; text-align: start; text-wrap: nowrap;&quot;&gt;%3CmxGraphModel%3E%3Croot%3E%3CmxCell%20id%3D%220%22%2F%3E%3CmxCell%20id%3D%221%22%20parent%3D%220%22%2F%3E%3CmxCell%20id%3D%222%22%20value%3D%22%D0%904%22%20style%3D%22text%3Bhtml%3D1%3Balign%3Dcenter%3BverticalAlign%3Dmiddle%3BwhiteSpace%3Dwrap%3Brounded%3D0%3B%22%20vertex%3D%221%22%20parent%3D%221%22%3E%3CmxGeometry%20x%3D%22800%22%20y%3D%22500%22%20width%3D%2260%22%20height%3D%2230%22%20as%3D%22geometry%22%2F%3E%3C%2FmxCell%3E%3C%2Froot%3E%3C%2FmxGraphModel%3E&lt;/span&gt;0" style="text;html=1;align=center;verticalAlign=middle;whiteSpace=wrap;rounded=0;" vertex="1" parent="1">
          <mxGeometry x="1410" y="140" width="60" height="30" as="geometry" />
        </mxCell>
        <mxCell id="XZJwOO6RYDCI8YUKahtn-71" value="B1" style="text;html=1;align=center;verticalAlign=middle;whiteSpace=wrap;rounded=0;" vertex="1" parent="1">
          <mxGeometry x="1570" y="230" width="60" height="30" as="geometry" />
        </mxCell>
        <mxCell id="XZJwOO6RYDCI8YUKahtn-72" value="B2" style="text;html=1;align=center;verticalAlign=middle;whiteSpace=wrap;rounded=0;" vertex="1" parent="1">
          <mxGeometry x="1730" y="320" width="60" height="30" as="geometry" />
        </mxCell>
        <mxCell id="XZJwOO6RYDCI8YUKahtn-73" value="B3" style="text;html=1;align=center;verticalAlign=middle;whiteSpace=wrap;rounded=0;" vertex="1" parent="1">
          <mxGeometry x="1890" y="410" width="60" height="30" as="geometry" />
        </mxCell>
        <mxCell id="XZJwOO6RYDCI8YUKahtn-74" value="B4" style="text;html=1;align=center;verticalAlign=middle;whiteSpace=wrap;rounded=0;" vertex="1" parent="1">
          <mxGeometry x="2050" y="500" width="60" height="30" as="geometry" />
        </mxCell>
      </root>
    </mxGraphModel>
  </diagram>
</mxfile>
